<?xml version="1.0" encoding="utf-8"?>
<svg xmlns="http://www.w3.org/2000/svg" viewBox="1.958 129.589 496.771 240.281" width="496.771px" height="240.281px"><path d="M 1.958 131.985 L 498.729 129.589 L 498.668 368.67 L 2.293 369.87 L 1.958 131.985 Z M 54.075 242.46 C 54.075 242.46 81.815 298.873 116.235 318.104 C 149.555 319.997 159.015 318.552 159.015 318.552 C 159.015 318.552 170.575 314.855 172.435 315.36 C 174.295 315.865 204.605 327.731 221.345 325.483 C 238.085 323.235 251.555 316.945 251.555 316.945 C 251.555 316.945 308.725 321.664 311.635 320.201 C 314.205 319.998 314.455 320.949 314.455 320.949 C 314.455 320.949 370.515 310.63 374.345 311.082 C 378.175 311.534 378.965 313.031 381.005 313.139 C 383.045 313.247 393.485 302.033 394.795 298.648 C 396.115 295.263 408.365 281.136 408.365 281.136 L 436.445 262.69 C 436.445 262.69 437.545 233.341 437.555 233.29 C 437.535 233.31 419.115 210.797 419.115 210.797 L 415.665 210.652 C 415.665 210.652 411.135 223.188 407.945 223.259 C 404.745 223.33 402.885 220.087 402.715 219.275 C 402.535 218.463 400.665 217.789 400.145 216.6 C 399.635 215.411 399.445 213.196 399.445 213.196 L 398.155 210.539 C 398.155 210.539 381.675 210.053 376.695 202.039 C 369.565 196.174 308.195 186.499 301.215 176.049 C 294.235 165.599 283.115 169.211 283.115 169.247 C 283.115 169.283 259.125 166.92 257.425 166.884 C 255.715 166.848 238.325 167.152 238.325 167.152 L 181.995 170.628 C 181.995 170.628 122.655 180.657 122.655 180.693 C 122.655 180.729 114.065 187.345 112.905 187.231 C 111.755 187.117 109.965 185.135 109.965 185.135 L 105.725 188.821 C 105.725 188.821 88.705 212.03 81.535 214.216 C 74.365 216.402 73.205 214.324 69.495 216.644 C 65.785 218.964 56.375 226.081 56.215 227.175 C 56.065 228.269 51.155 232.298 51.935 236.198 C 52.715 240.098 53.825 242.362 54.075 242.46 Z M 437.555 233.29 C 437.555 233.29 437.555 233.29 437.555 233.29 C 437.555 233.29 437.555 233.29 437.555 233.29 Z" style="fill: rgb(197, 171, 216);" id="object-2"><title>IN</title></path></svg>