<?xml version="1.0" encoding="utf-8"?>
<svg xmlns="http://www.w3.org/2000/svg" viewBox="1.892 123.642 497.062 253.218" width="497.062px" height="253.218px"><path d="M 1.987 126.393 L 498.755 123.642 L 498.954 376.634 L 1.892 376.86 L 1.987 126.393 Z M 37.096 254.642 L 55.512 320.467 C 55.512 320.467 79.344 336.023 79.414 336.091 C 79.484 336.159 82.694 334.369 84.584 335.959 C 86.464 337.549 86.604 338.687 86.604 340.03 C 86.604 341.373 87.605 343.982 87.605 343.982 C 87.605 343.982 119.974 341.397 124.385 344.397 C 128.795 344.388 130.525 343.368 131.835 345.683 C 133.144 347.998 130.126 350.68 130.126 350.68 C 130.126 350.68 128.006 353.383 126.845 354.939 C 125.685 356.495 127.346 357.42 127.897 359.098 C 128.457 360.776 156.197 360.49 156.197 360.49 C 156.197 360.49 161.926 357.368 161.956 357.368 C 161.976 357.368 183.535 354.563 183.535 354.563 C 183.535 354.563 183.526 352.139 184.245 351.421 C 184.966 350.703 210.005 347.299 230.644 348.295 C 238.215 348.711 233.955 356.412 233.955 356.412 C 233.955 356.412 240.646 357.197 240.666 357.197 C 240.696 357.197 259.365 345.003 261.924 335.877 C 264.473 326.751 267.414 337.037 267.414 337.037 C 267.414 337.037 269.885 351.39 274.676 350.107 C 279.465 348.824 300.896 352.285 302.685 351.475 C 304.466 350.665 306.345 349.793 308.066 350.772 C 309.786 351.751 312.816 355.922 314.706 355.992 C 316.596 356.062 355.866 356.776 355.866 356.776 C 355.866 356.776 358.046 352.194 358.076 352.152 C 358.026 352.158 353.196 350.349 353.055 349.037 C 352.915 347.719 352.125 346.877 353.825 345.425 C 355.525 343.973 395.605 342.087 395.605 342.087 C 395.605 342.087 400.672 321.02 400.682 321.014 C 400.682 320.991 400.653 318.276 401.923 316.62 C 403.192 314.95 446.39 295.039 446.39 295.039 C 446.39 295.039 446.62 291.567 447.669 290.636 C 448.72 289.705 455.009 288.277 455.009 288.299 C 455.009 288.321 470.708 273.563 470.708 273.563 C 470.708 273.563 473.347 271.538 473.346 267.902 C 473.356 264.266 470.495 247.609 470.495 247.609 L 461.279 197.203 C 461.279 197.203 452.969 191.59 448.778 192.434 C 444.579 193.278 439.3 198.263 434.698 192.493 C 430.099 186.723 411.969 186.826 411.969 186.826 C 411.969 186.826 406.98 207.289 402.43 207.398 C 397.88 207.507 387.979 189.683 388.029 189.683 C 388.079 189.683 290.444 143.136 290.444 143.136 C 290.444 143.136 267.553 140.566 256.766 164.038 C 245.978 187.51 250.508 194.152 247.46 194.791 C 244.409 195.43 243.698 193.935 243.208 192.39 C 242.708 190.845 235.985 153.964 232.346 152.344 C 228.715 150.724 218.424 143.594 218.424 143.594 L 199.194 147.86 L 191.114 143.845 C 191.114 143.845 189.585 152.248 189.545 152.248 C 189.495 152.248 182.447 170.156 182.447 170.156 C 182.447 170.156 182.387 173.739 180.567 174.073 C 178.737 174.407 177.977 170.853 177.977 170.853 C 177.977 170.853 162.825 144.444 158.684 143.728 C 154.544 143.012 117.456 163.523 114.076 164.05 C 110.706 164.577 99.176 166.222 99.136 166.266 C 99.086 166.31 83.877 171.309 82.607 171.485 C 81.337 171.661 67.952 214.762 67.912 216.462 C 67.872 218.162 68.082 225.035 66.702 225.251 C 65.322 225.467 63.033 224.398 62.501 220.043 C 61.981 215.688 60.792 213.09 60.842 213.09 C 60.882 213.09 55.911 206.288 54.99 201.084 C 54.059 195.88 45.049 200.71 45.049 200.754 C 45.049 200.798 39.142 223.597 39.142 223.642 C 39.142 223.687 36.925 254.082 37.096 254.642 Z M 358.076 352.152 C 358.076 352.152 358.076 352.152 358.076 352.152 C 358.076 352.152 358.076 352.152 358.076 352.152 Z M 400.682 321.014 C 400.682 321.014 400.682 321.014 400.682 321.014 C 400.682 321.014 400.682 321.014 400.682 321.014 Z" style="fill: rgb(148, 94, 188);" id="object-1"><title>MID</title></path></svg>