<?xml version="1.0" encoding="utf-8"?>
<svg xmlns="http://www.w3.org/2000/svg" viewBox="1.595 114.132 497.05 271.859" width="497.05px" height="271.859px"><path d="M 1.595 114.132 L 498.645 114.132 L 498.645 385.991 L 1.595 385.991 L 1.595 114.132 Z M 95.645 160.714 C 95.645 160.714 65.265 178.073 48.165 211.227 C 31.055 244.381 20.965 257.941 19.405 266.549 L 39.305 315.894 L 37.805 329.65 C 37.805 329.65 56.395 350.765 56.425 350.794 C 56.465 350.823 58.145 352.232 56.655 353.236 C 55.175 354.24 60.915 354.748 57.995 358.819 C 55.055 362.89 57.585 363.472 57.585 363.472 L 73.945 366.096 C 73.945 366.096 84.835 363.062 84.835 363.089 C 84.835 363.116 144.675 370.445 144.675 370.445 C 144.675 370.445 167.375 371.181 167.375 371.152 C 167.375 371.123 189.605 368.281 201.875 367.077 C 208.435 366.139 208.295 370.071 208.295 370.071 L 223.475 369.478 C 223.475 369.478 223.575 367.178 225.485 367.328 C 227.385 367.478 329.125 364.36 380.555 368.571 C 389.935 365.978 393.995 366.195 393.995 366.195 C 393.995 366.195 407.945 357.313 407.945 357.342 C 407.945 357.371 412.725 351.281 414.435 351.216 C 416.125 351.151 423.475 350.536 425.375 350.149 C 427.255 349.762 427.815 349.531 429.715 351.16 C 431.595 352.789 435.625 357.609 435.625 357.639 C 435.625 357.669 444.845 352.73 444.845 352.73 C 444.845 352.73 449.755 338.639 452.375 334.279 C 454.995 329.919 457.535 327.432 459.505 327.22 C 461.475 327.008 466.125 327.017 467.065 325.928 C 468.035 324.839 479.755 293.52 479.755 293.52 L 482.535 286.494 L 486.405 268.917 C 486.405 268.917 481.715 264.891 479.315 255.419 C 472.465 247.781 443.695 217.675 443.695 217.675 C 443.695 217.675 438.465 236.407 433.375 235.675 C 428.285 234.943 429.745 233.698 429.745 233.698 L 419.375 192.147 C 419.375 192.147 403.225 179.498 398.835 178.033 C 394.435 176.568 390.495 170.73 389.195 164.565 C 385.835 158.786 353.065 139.865 353.065 139.865 C 353.065 139.865 339.835 140.564 328.165 136.966 C 316.485 133.368 300.685 169.82 299.555 179.548 C 298.395 189.276 296.065 194.856 293.835 195.014 C 291.625 195.172 288.685 192.076 288.685 190.177 C 288.685 188.278 284.495 179.978 284.085 173.091 C 283.695 166.204 278.275 143.329 278.275 143.436 C 278.275 143.543 270.485 133.204 270.485 133.204 C 270.485 133.204 156.335 130.967 135.935 139.421 C 115.545 147.875 112.125 184.49 112.015 184.49 C 111.915 184.49 111.775 189.728 109.125 189.729 C 106.465 189.73 104.975 188.067 104.395 186.664 C 103.835 185.261 96.245 160.622 95.645 160.714 Z" style="fill: rgb(25, 0, 42);" id="object-0"><title>OUT</title></path></svg>