<?xml version="1.0" encoding="UTF-8" standalone="no"?><!DOCTYPE svg PUBLIC "-//W3C//DTD SVG 1.1//EN" "http://www.w3.org/Graphics/SVG/1.1/DTD/svg11.dtd"><svg width="100%" height="100%" viewBox="0 0 161 219" version="1.1" xmlns="http://www.w3.org/2000/svg" xmlns:xlink="http://www.w3.org/1999/xlink" xml:space="preserve" xmlns:serif="http://www.serif.com/" style="fill-rule:evenodd;clip-rule:evenodd;stroke-linejoin:round;stroke-miterlimit:2;"><path d="M18.089,162.089c2.097,0 3.804,1.689 3.827,3.787c0,0 0,0.001 0,0.001c0.074,6.807 2.144,13.128 5.648,18.413l0.62,0.655c6.043,6.152 9.124,8.111 17.511,8.021c11.667,-0.126 21.19,-6.723 22.3,-18.078c0.079,-0.812 0.043,-4.13 -0.054,-4.941l0,-68.646c0,-2.761 2.239,-5 5,-5c6.568,0 17.873,0 23.054,0c1.707,0 3.296,0.871 4.215,2.31c5.823,9.242 26.907,43.927 27.102,62.006c0.343,31.752 -25.158,57.809 -56.91,58.152c-4.12,0.045 -17.703,0 -21.312,0c-8.705,0 -17.333,-1.929 -23.829,-5.018c-6.011,-3.039 -11.211,-7.168 -15.601,-12.387c-5.892,-6.048 -9.56,-14.282 -9.658,-23.384c-0.049,-4.502 0.781,-8.811 2.329,-12.764c0.761,-1.871 2.58,-3.094 4.6,-3.094c3.098,-0.033 7.811,-0.033 11.158,-0.033Z" style="fill:#18002a;"/><path d="M66.608,79.429l-30.399,22.878c-2.015,1.516 -4.727,1.725 -6.95,0.535c-2.224,-1.189 -3.554,-3.561 -3.411,-6.079l1.563,-27.389l-23.204,-11.688c-2.185,-1.1 -3.563,-3.338 -3.563,-5.784c0,-2.446 1.378,-4.684 3.563,-5.784l23.215,-11.694l-1.574,-27.579c-0.143,-2.517 1.187,-4.889 3.411,-6.079c2.223,-1.19 4.935,-0.981 6.95,0.536l34.881,26.251c3.411,-1.195 7.071,-1.862 10.883,-1.903c12.519,-0.135 23.542,6.517 29.566,16.53l30.135,-0c4.872,-0 9.545,1.935 12.99,5.381c3.445,3.445 5.381,8.118 5.381,12.99l-0,13.828c-0,1.339 -0.532,2.623 -1.479,3.571c-0.947,0.947 -2.232,1.479 -3.571,1.479l-88.387,-0Z" style="fill:#18002a;"/></svg>