<?xml version="1.0" encoding="UTF-8" standalone="no"?>
<!DOCTYPE svg PUBLIC "-//W3C//DTD SVG 1.1//EN" "http://www.w3.org/Graphics/SVG/1.1/DTD/svg11.dtd">
<svg width="100%" height="100%" viewBox="0 0 156 206" version="1.1" xmlns="http://www.w3.org/2000/svg" xmlns:xlink="http://www.w3.org/1999/xlink" xml:space="preserve" xmlns:serif="http://www.serif.com/" style="fill-rule:evenodd;clip-rule:evenodd;stroke-linejoin:round;stroke-miterlimit:2;">
    <g transform="matrix(1,0,0,1,-1622.45,-2332.19)">
        <g transform="matrix(1,0,0,1,1342.89,1571.86)">
            <path d="M306.322,829.701L283.118,818.013C280.933,816.913 279.555,814.675 279.555,812.229C279.555,809.783 280.933,807.545 283.118,806.445L306.332,794.751L304.759,767.173C304.616,764.655 305.946,762.283 308.17,761.093C310.393,759.904 313.105,760.113 315.12,761.629L357.478,793.507L416.585,793.507C421.457,793.507 426.13,795.442 429.575,798.888C433.02,802.333 434.956,807.006 434.956,811.878L434.956,825.706C434.956,827.045 434.424,828.33 433.477,829.277C432.53,830.224 431.245,830.756 429.906,830.756L357.478,830.756L315.12,862.634C313.105,864.15 310.393,864.359 308.17,863.169C305.946,861.98 304.616,859.608 304.759,857.09L306.322,829.701ZM311.908,909.375C314.006,909.375 315.713,911.064 315.736,913.162L315.736,913.164C315.81,919.97 317.88,926.292 321.383,931.576L322.004,932.231C328.047,938.383 331.128,940.342 339.515,940.252C351.182,940.126 360.705,933.529 361.815,922.174C361.894,921.362 361.858,918.044 361.761,917.233L361.761,846.921C361.761,846.037 362.112,845.189 362.738,844.564C363.363,843.939 364.211,843.587 365.095,843.587L390.069,843.587C391.617,843.587 393.058,844.376 393.893,845.68C399.515,854.584 420.935,889.68 421.132,907.903C421.475,939.655 395.974,965.712 364.222,966.055C360.102,966.1 346.519,966.055 342.909,966.055C334.204,966.055 325.577,964.126 319.081,961.037C313.07,957.998 307.869,953.869 303.48,948.65C297.588,942.602 293.92,934.368 293.822,925.267C293.773,920.764 294.603,916.455 296.151,912.502C296.912,910.632 298.731,909.408 300.751,909.408C303.849,909.375 308.562,909.375 311.908,909.375Z" style="fill:rgb(250,247,244);"/>
        </g>
    </g>
</svg>
