<?xml version="1.0" encoding="UTF-8" standalone="no"?>
<!DOCTYPE svg PUBLIC "-//W3C//DTD SVG 1.1//EN" "http://www.w3.org/Graphics/SVG/1.1/DTD/svg11.dtd">
<svg width="100%" height="100%" viewBox="0 0 1210 226" version="1.1" xmlns="http://www.w3.org/2000/svg" xmlns:xlink="http://www.w3.org/1999/xlink" xml:space="preserve" xmlns:serif="http://www.serif.com/" style="fill-rule:evenodd;clip-rule:evenodd;stroke-linejoin:round;stroke-miterlimit:2;">
    <g transform="matrix(1,0,0,1,-196.744,-2340.68)">
        <g transform="matrix(0.917444,0,0,0.917444,-0.76728,1370.69)">
            <path d="M772.472,1156.56C764.014,1156.56 757.148,1149.69 757.148,1141.23C757.148,1132.78 764.014,1125.91 772.472,1125.91C786.088,1125.91 797.142,1136.96 797.142,1150.58C797.142,1161.77 789.681,1171.22 779.468,1174.24C777.843,1174.73 776.082,1174.42 774.719,1173.41C773.357,1172.4 772.554,1170.8 772.554,1169.1C772.472,1163.65 772.472,1156.56 772.472,1156.56ZM475.156,1288.78C472.182,1291.59 468.691,1293.95 464.682,1295.85C458.475,1298.8 451.569,1300.28 443.966,1300.28C433.569,1300.28 424.258,1297.71 416.034,1292.59C407.965,1287.47 401.525,1280.49 396.714,1271.64C392.059,1262.8 389.732,1252.71 389.732,1241.39C389.732,1230.06 392.059,1219.97 396.714,1211.13C401.525,1202.28 407.965,1195.3 416.034,1190.18C424.258,1185.06 433.569,1182.5 443.966,1182.5C451.569,1182.5 458.397,1183.97 464.449,1186.92C468.518,1188.85 472.087,1191.29 475.156,1194.22L475.156,1190.27C475.156,1187.26 477.596,1184.82 480.606,1184.82L504.621,1184.82C506.066,1184.82 507.452,1185.4 508.474,1186.42C509.496,1187.44 510.071,1188.83 510.071,1190.27L510.071,1292.5C510.071,1293.94 509.496,1295.33 508.474,1296.35C507.452,1297.37 506.066,1297.95 504.621,1297.95L480.606,1297.95C477.596,1297.95 475.156,1295.51 475.156,1292.5L475.156,1288.78ZM451.181,1268.15C458.785,1268.15 464.914,1265.67 469.57,1260.7C474.225,1255.58 476.553,1249.14 476.553,1241.39C476.553,1236.11 475.466,1231.45 473.294,1227.42C471.277,1223.38 468.328,1220.28 464.449,1218.11C460.725,1215.78 456.38,1214.62 451.414,1214.62C446.448,1214.62 442.026,1215.78 438.146,1218.11C434.422,1220.28 431.396,1223.38 429.069,1227.42C426.896,1231.45 425.81,1236.11 425.81,1241.39C425.81,1246.51 426.896,1251.08 429.069,1255.12C431.241,1259.15 434.267,1262.33 438.146,1264.66C442.026,1266.99 446.371,1268.15 451.181,1268.15ZM595.146,1300.51C583.507,1300.51 572.955,1297.95 563.49,1292.83C554.024,1287.71 546.575,1280.64 541.144,1271.64C535.713,1262.64 532.998,1252.56 532.998,1241.39C532.998,1230.06 535.713,1219.97 541.144,1211.13C546.731,1202.13 554.257,1195.07 563.722,1189.94C573.188,1184.82 583.818,1182.26 595.611,1182.26C604.456,1182.26 612.525,1183.82 619.819,1186.92C625.517,1189.17 630.716,1192.34 635.415,1196.41C636.539,1197.4 637.204,1198.81 637.252,1200.3C637.3,1201.8 636.726,1203.25 635.668,1204.31C631.416,1208.61 624.62,1215.4 620.448,1219.57C618.513,1221.51 615.442,1221.71 613.273,1220.04C611.529,1218.63 609.587,1217.54 607.482,1216.71C604.068,1215.32 600.111,1214.62 595.611,1214.62C590.49,1214.62 585.913,1215.78 581.878,1218.11C577.999,1220.28 574.895,1223.38 572.567,1227.42C570.395,1231.3 569.309,1235.88 569.309,1241.15C569.309,1246.43 570.395,1251.08 572.567,1255.12C574.895,1259.15 578.076,1262.33 582.111,1264.66C586.145,1266.99 590.645,1268.15 595.611,1268.15C600.266,1268.15 604.379,1267.38 607.948,1265.83C610.131,1264.83 612.127,1263.61 613.937,1262.18C616.095,1260.46 619.205,1260.64 621.147,1262.61C625.321,1266.75 632.006,1273.51 636.213,1277.76C637.262,1278.82 637.831,1280.26 637.787,1281.75C637.744,1283.24 637.092,1284.65 635.984,1285.64C631.127,1289.92 625.822,1293.33 620.051,1295.85C612.603,1298.96 604.301,1300.51 595.146,1300.51ZM691.152,1257.16L691.152,1292.5C691.152,1295.51 688.712,1297.95 685.702,1297.95L660.989,1297.95C657.979,1297.95 655.539,1295.51 655.539,1292.5L655.539,1134.41C655.539,1131.4 657.979,1128.96 660.989,1128.96L685.702,1128.96C688.712,1128.96 691.152,1131.4 691.152,1134.41L691.152,1222.59L716.799,1187.08C717.824,1185.66 719.467,1184.82 721.217,1184.82L753.626,1184.82C755.706,1184.82 757.605,1186.01 758.52,1187.88C759.435,1189.74 759.207,1191.97 757.932,1193.61L723.384,1238.15L760.746,1289.28C761.957,1290.94 762.134,1293.13 761.205,1294.96C760.276,1296.79 758.398,1297.95 756.346,1297.95L721.561,1297.95C719.749,1297.95 718.056,1297.05 717.043,1295.55L691.152,1257.16ZM828.627,1300.74C821.954,1300.74 815.359,1299.89 808.842,1298.18C802.48,1296.47 796.505,1294.07 790.919,1290.96C787.274,1288.78 783.978,1286.38 781.032,1283.77C779.93,1282.78 779.282,1281.38 779.24,1279.9C779.197,1278.41 779.763,1276.98 780.806,1275.92C784.43,1272.23 789.861,1266.74 793.466,1263.09C795.478,1261.06 798.72,1260.92 800.891,1262.79C803.736,1265.23 806.937,1267.25 810.471,1268.85C815.592,1271.02 821.178,1272.11 827.23,1272.11C831.42,1272.11 834.601,1271.49 836.774,1270.25C839.101,1269.01 840.265,1267.3 840.265,1265.13C840.265,1262.33 838.869,1260.24 836.075,1258.84C833.437,1257.29 830.023,1255.97 825.834,1254.89C821.644,1253.64 817.221,1252.33 812.566,1250.93C807.911,1249.53 803.488,1247.59 799.299,1245.11C795.109,1242.63 791.695,1239.21 789.057,1234.87C786.419,1230.37 785.1,1224.7 785.1,1217.88C785.1,1210.58 786.962,1204.3 790.686,1199.02C794.411,1193.59 799.687,1189.32 806.514,1186.22C813.342,1183.12 821.334,1181.57 830.489,1181.57C840.11,1181.57 848.955,1183.27 857.024,1186.69C863.469,1189.24 868.961,1192.79 873.501,1197.35C875.544,1199.46 875.526,1202.82 873.461,1204.91C869.892,1208.58 864.332,1214.21 860.63,1217.95C858.603,1220 855.331,1220.12 853.163,1218.22C850.578,1215.88 847.74,1214.15 844.688,1212.99C840.343,1211.28 836.075,1210.43 831.886,1210.43C827.851,1210.43 824.825,1211.05 822.808,1212.29C820.791,1213.38 819.782,1215.01 819.782,1217.18C819.782,1219.51 821.101,1221.37 823.739,1222.76C826.377,1224.16 829.791,1225.4 833.98,1226.49C838.17,1227.58 842.593,1228.89 847.248,1230.45C851.903,1232 856.326,1234.09 860.516,1236.73C864.705,1239.37 868.119,1242.94 870.757,1247.44C873.395,1251.78 874.714,1257.52 874.714,1264.66C874.714,1275.68 870.524,1284.45 862.145,1290.96C853.921,1297.48 842.748,1300.74 828.627,1300.74ZM235.001,1233.95C237.288,1233.95 239.148,1235.79 239.173,1238.08L239.173,1238.08C239.253,1245.5 241.51,1252.39 245.329,1258.15L246.005,1258.86C252.591,1265.57 255.95,1267.7 265.091,1267.61C277.808,1267.47 288.189,1260.28 289.398,1247.9C289.485,1247.02 289.446,1243.4 289.34,1242.52L289.34,1167.69C289.34,1164.68 291.78,1162.24 294.79,1162.24L319.918,1162.24C321.779,1162.24 323.511,1163.19 324.512,1164.76C330.859,1174.84 353.84,1212.64 354.053,1232.35C354.427,1266.96 326.632,1295.36 292.022,1295.73C287.532,1295.78 272.726,1295.73 268.792,1295.73C259.303,1295.73 249.9,1293.63 242.819,1290.26C236.267,1286.95 230.599,1282.45 225.814,1276.76C219.392,1270.17 215.394,1261.19 215.287,1251.27C215.234,1246.37 216.138,1241.67 217.825,1237.36C218.656,1235.32 220.638,1233.99 222.84,1233.99C226.216,1233.95 231.354,1233.95 235.001,1233.95ZM287.887,1143.85L254.752,1168.79C252.556,1170.44 249.6,1170.67 247.177,1169.37C244.753,1168.08 243.303,1165.49 243.459,1162.75L245.162,1132.89L219.871,1120.15C217.489,1118.95 215.987,1116.52 215.987,1113.85C215.987,1111.18 217.489,1108.74 219.871,1107.54L245.174,1094.8L243.459,1064.74C243.303,1061.99 244.753,1059.41 247.177,1058.11C249.6,1056.82 252.556,1057.04 254.752,1058.7L292.772,1087.31C296.49,1086.01 300.479,1085.28 304.634,1085.24C318.279,1085.09 330.294,1092.34 336.861,1103.25L369.707,1103.25C375.018,1103.25 380.111,1105.36 383.867,1109.12C387.622,1112.87 389.732,1117.97 389.732,1123.28L389.732,1138.35C389.732,1139.81 389.152,1141.21 388.119,1142.24C387.087,1143.27 385.687,1143.85 384.227,1143.85L287.887,1143.85ZM1038.04,1302.46C1024.7,1302.46 1012.3,1300.12 1000.82,1295.45C989.512,1290.61 979.553,1283.86 970.945,1275.2C962.506,1266.55 955.923,1256.51 951.197,1245.09C946.471,1233.49 944.108,1221.03 944.108,1207.7C944.108,1194.38 946.471,1182 951.197,1170.58C955.923,1158.98 962.506,1148.94 970.945,1140.46C979.385,1131.98 989.259,1125.4 1000.57,1120.73C1012.05,1115.88 1024.45,1113.46 1037.79,1113.46C1051.96,1113.46 1064.54,1115.8 1075.51,1120.47C1084.82,1124.38 1093.13,1129.49 1100.44,1135.82C1101.55,1136.8 1102.21,1138.19 1102.27,1139.68C1102.33,1141.16 1101.78,1142.6 1100.75,1143.67C1095.7,1148.92 1086.87,1158.06 1081.84,1163.27C1079.8,1165.38 1076.44,1165.5 1074.26,1163.53C1070.37,1160.04 1065.88,1157.2 1060.82,1155C1054.24,1152.06 1046.56,1150.59 1037.79,1150.59C1030.02,1150.59 1022.85,1151.97 1016.26,1154.74C1009.85,1157.34 1004.28,1161.14 999.555,1166.16C994.997,1171.18 991.368,1177.24 988.668,1184.34C986.136,1191.43 984.87,1199.22 984.87,1207.7C984.87,1216.36 986.136,1224.23 988.668,1231.33C991.368,1238.42 994.997,1244.48 999.555,1249.5C1004.28,1254.52 1009.85,1258.41 1016.26,1261.18C1022.85,1263.95 1030.02,1265.34 1037.79,1265.34C1046.9,1265.34 1054.83,1263.87 1061.58,1260.92C1066.69,1258.7 1071.26,1255.83 1075.31,1252.32C1077.47,1250.4 1080.76,1250.52 1082.78,1252.59C1087.85,1257.74 1096.77,1266.89 1101.92,1272.17C1102.97,1273.25 1103.53,1274.72 1103.46,1276.23C1103.39,1277.73 1102.7,1279.14 1101.56,1280.12C1094,1286.43 1085.58,1291.55 1076.27,1295.45C1065.3,1300.12 1052.55,1302.46 1038.04,1302.46ZM1351.46,1256.62L1374.15,1189.99C1374.9,1187.79 1376.97,1186.3 1379.31,1186.3L1404.51,1186.3C1406.34,1186.3 1408.04,1187.21 1409.05,1188.73C1410.06,1190.25 1410.24,1192.17 1409.54,1193.85L1366.66,1296.34C1365.82,1298.35 1363.86,1299.67 1361.68,1299.69L1340.62,1299.86C1338.41,1299.88 1336.4,1298.56 1335.55,1296.51L1292.69,1193.85C1291.98,1192.17 1292.17,1190.25 1293.18,1188.73C1294.19,1187.21 1295.89,1186.3 1297.72,1186.3L1323.62,1186.3C1325.95,1186.3 1328.03,1187.79 1328.78,1189.99L1351.46,1256.62ZM1452.12,1254.98C1452.64,1256.81 1453.28,1258.54 1454.05,1260.16C1456.51,1264.83 1459.88,1268.49 1464.18,1271.14C1468.63,1273.64 1473.85,1274.88 1479.84,1274.88C1485.36,1274.88 1490.35,1273.95 1494.8,1272.08C1497.74,1270.74 1500.45,1268.99 1502.92,1266.84C1505.07,1264.95 1508.32,1265.07 1510.33,1267.11C1513.82,1270.58 1518.86,1275.69 1522.25,1279.14C1524.35,1281.28 1524.33,1284.72 1522.2,1286.84C1517.44,1291.4 1512,1294.98 1505.85,1297.55C1498.03,1300.83 1489.43,1302.46 1480.07,1302.46C1467.94,1302.46 1457.12,1299.97 1447.61,1294.98C1438.25,1289.84 1430.88,1282.75 1425.51,1273.71C1420.13,1264.68 1417.45,1254.47 1417.45,1243.1C1417.45,1231.72 1420.06,1221.59 1425.28,1212.71C1430.65,1203.67 1437.86,1196.58 1446.92,1191.44C1455.97,1186.3 1466.18,1183.73 1477.54,1183.73C1488.59,1183.73 1498.33,1186.14 1506.77,1190.98C1515.21,1195.81 1521.81,1202.51 1526.57,1211.08C1531.48,1219.64 1533.94,1229.46 1533.94,1240.53C1533.94,1242.55 1533.79,1244.73 1533.48,1247.07C1533.41,1247.99 1533.31,1248.99 1533.16,1250.05C1532.81,1252.75 1530.5,1254.78 1527.77,1254.79C1514.4,1254.82 1474.73,1254.92 1452.12,1254.98ZM1452.14,1230.43L1501.04,1230.29C1500.57,1228.12 1499.95,1226.16 1499.18,1224.4C1497.33,1220.04 1494.57,1216.76 1490.89,1214.58C1487.36,1212.24 1482.98,1211.08 1477.77,1211.08C1472.24,1211.08 1467.41,1212.4 1463.26,1215.05C1459.27,1217.54 1456.12,1221.12 1453.82,1225.8C1453.16,1227.25 1452.6,1228.79 1452.14,1230.43ZM1117.56,1295.48L1143.16,1229.44C1143.97,1227.35 1145.99,1225.96 1148.24,1225.96L1162.33,1225.96C1164.54,1225.96 1166.54,1224.62 1167.37,1222.57L1185.47,1178.15C1186.3,1176.1 1188.3,1174.76 1190.51,1174.76L1233.58,1174.76C1235.78,1174.76 1237.76,1176.08 1238.61,1178.11L1270.9,1255.47L1289.84,1255.47C1292.1,1255.47 1294.13,1256.87 1294.93,1258.98L1308.67,1295.03C1309.31,1296.7 1309.09,1298.58 1308.07,1300.06C1307.05,1301.54 1305.37,1302.42 1303.58,1302.42L1253.89,1302.42C1251.7,1302.42 1249.71,1301.1 1248.87,1299.07L1217.43,1223.84L1207.42,1223.84L1195.25,1252.22C1194.4,1254.2 1192.46,1255.49 1190.31,1255.52L1175.09,1255.73L1157.53,1298.83C1156.71,1300.85 1154.78,1302.18 1152.61,1302.23L1122.76,1302.9C1120.94,1302.94 1119.22,1302.07 1118.18,1300.58C1117.13,1299.09 1116.9,1297.18 1117.56,1295.48Z" style="fill:rgb(250,247,244);"/>
        </g>
    </g>
</svg>
