<?xml version="1.0" encoding="UTF-8" standalone="no"?><!DOCTYPE svg PUBLIC "-//W3C//DTD SVG 1.1//EN" "http://www.w3.org/Graphics/SVG/1.1/DTD/svg11.dtd"><svg width="100%" height="100%" viewBox="0 0 1210 226" version="1.1" xmlns="http://www.w3.org/2000/svg" xmlns:xlink="http://www.w3.org/1999/xlink" xml:space="preserve" xmlns:serif="http://www.serif.com/" style="fill-rule:evenodd;clip-rule:evenodd;stroke-linejoin:round;stroke-miterlimit:2;"><g><path d="M209.802,222.937c-9.539,-0 -18.081,-2.349 -25.626,-7.047c-7.403,-4.698 -13.311,-11.105 -17.725,-19.219c-4.271,-8.115 -6.406,-17.369 -6.406,-27.762c-0,-10.392 2.135,-19.646 6.406,-27.761c4.414,-8.115 10.322,-14.521 17.725,-19.219c7.545,-4.698 16.087,-7.047 25.626,-7.047c6.976,-0 13.24,1.352 18.792,4.057c5.695,2.705 10.321,6.478 13.881,11.318c3.559,4.698 5.552,10.108 5.979,16.23l-0,44.845c-0.427,6.122 -2.42,11.603 -5.979,16.443c-3.417,4.698 -7.973,8.4 -13.668,11.105c-5.694,2.704 -12.029,4.057 -19.005,4.057Zm6.62,-29.47c6.976,0 12.599,-2.278 16.87,-6.833c4.271,-4.698 6.406,-10.606 6.406,-17.725c0,-4.84 -0.996,-9.111 -2.989,-12.813c-1.851,-3.701 -4.556,-6.548 -8.115,-8.542c-3.417,-2.135 -7.403,-3.203 -11.959,-3.203c-4.555,0 -8.613,1.068 -12.172,3.203c-3.417,1.994 -6.193,4.841 -8.328,8.542c-1.993,3.702 -2.99,7.973 -2.99,12.813c-0,4.698 0.997,8.898 2.99,12.6c1.993,3.701 4.769,6.62 8.328,8.755c3.559,2.136 7.545,3.203 11.959,3.203Zm26.995,27.334c-2.761,0 -5,-2.238 -5,-5c0,-8.046 0,-22.974 0,-22.974l4.912,-25.199l-4.912,-25.199l0,-20.412c0,-2.761 2.239,-5 5,-5c6.007,0 16.025,0 22.032,0c1.326,0 2.598,0.527 3.536,1.465c0.938,0.937 1.464,2.209 1.464,3.535c0,17.551 0,76.233 0,93.784c0,1.327 -0.526,2.598 -1.464,3.536c-0.938,0.938 -2.21,1.464 -3.536,1.464c-6.007,0 -16.025,0 -22.032,0Z" style="fill:#18002a;fill-rule:nonzero;"/><path d="M348.501,223.151c-10.678,-0 -20.358,-2.35 -29.043,-7.048c-8.684,-4.698 -15.517,-11.175 -20.5,-19.432c-4.983,-8.258 -7.474,-17.511 -7.474,-27.762c-0,-10.392 2.491,-19.646 7.474,-27.761c5.125,-8.257 12.03,-14.735 20.714,-19.433c8.684,-4.698 18.436,-7.047 29.256,-7.047c8.115,0 15.518,1.424 22.209,4.271c5.228,2.069 9.998,4.972 14.309,8.708c1.031,0.907 1.641,2.2 1.685,3.573c0.044,1.372 -0.482,2.702 -1.453,3.673c-3.901,3.944 -10.136,10.179 -13.963,14.006c-1.776,1.775 -4.593,1.958 -6.583,0.427c-1.6,-1.294 -3.382,-2.297 -5.313,-3.053c-3.132,-1.281 -6.762,-1.922 -10.891,-1.922c-4.698,0 -8.898,1.068 -12.599,3.203c-3.56,1.994 -6.407,4.841 -8.542,8.542c-1.993,3.56 -2.99,7.759 -2.99,12.6c0,4.84 0.997,9.111 2.99,12.813c2.135,3.701 5.054,6.62 8.755,8.755c3.702,2.136 7.83,3.203 12.386,3.203c4.271,0 8.044,-0.711 11.318,-2.135c2.003,-0.918 3.835,-2.032 5.495,-3.341c1.98,-1.581 4.833,-1.414 6.615,0.386c3.829,3.806 9.962,10.003 13.822,13.902c0.962,0.972 1.484,2.295 1.444,3.662c-0.039,1.368 -0.637,2.659 -1.654,3.573c-4.457,3.921 -9.323,7.049 -14.617,9.366c-6.834,2.847 -14.451,4.271 -22.85,4.271Z" style="fill:#18002a;fill-rule:nonzero;"/><path d="M464.48,220.801c-1.662,0 -3.216,-0.825 -4.145,-2.203c-6.824,-10.116 -34.817,-51.611 -34.817,-51.611c0,0 27.776,-38.459 34.593,-47.897c0.94,-1.302 2.448,-2.073 4.053,-2.073c5.74,0 19.915,0 29.734,0c1.908,0 3.65,1.087 4.49,2.8c0.839,1.714 0.63,3.757 -0.539,5.265c-12.052,15.536 -37.309,48.098 -37.309,48.098l1.068,-13.453c-0,-0 26.736,36.586 38.822,53.124c1.111,1.52 1.273,3.536 0.421,5.214c-0.852,1.679 -2.576,2.736 -4.458,2.736c-10.285,0 -25.761,0 -31.913,0Zm-55.572,0c-2.761,0 -5,-2.238 -5,-5c0,-23.368 0,-121.667 0,-145.035c0,-2.762 2.239,-5 5,-5c6.149,-0 16.524,-0 22.673,-0c2.761,-0 5,2.238 5,5c0,23.368 0,121.667 0,145.035c0,2.762 -2.239,5 -5,5c-6.149,0 -16.524,0 -22.673,0Z" style="fill:#18002a;fill-rule:nonzero;"/><path d="M562.707,223.364c-6.122,0 -12.172,-0.783 -18.152,-2.349c-5.837,-1.566 -11.318,-3.773 -16.443,-6.62c-3.344,-2.007 -6.368,-4.206 -9.071,-6.597c-1.011,-0.911 -1.605,-2.197 -1.644,-3.557c-0.039,-1.36 0.48,-2.678 1.437,-3.646c3.325,-3.389 8.307,-8.429 11.615,-11.774c1.845,-1.866 4.82,-1.988 6.812,-0.278c2.61,2.245 5.547,4.091 8.789,5.565c4.698,1.993 9.823,2.99 15.376,2.99c3.843,-0 6.762,-0.57 8.755,-1.709c2.135,-1.139 3.203,-2.705 3.203,-4.698c0,-2.562 -1.281,-4.484 -3.844,-5.766c-2.42,-1.423 -5.552,-2.633 -9.396,-3.63c-3.844,-1.139 -7.901,-2.349 -12.172,-3.63c-4.271,-1.282 -8.328,-3.061 -12.172,-5.339c-3.844,-2.278 -6.976,-5.41 -9.396,-9.396c-2.421,-4.129 -3.631,-9.325 -3.631,-15.589c0,-6.691 1.709,-12.457 5.125,-17.297c3.417,-4.983 8.258,-8.898 14.522,-11.746c6.264,-2.847 13.596,-4.271 21.995,-4.271c8.827,0 16.942,1.566 24.345,4.699c5.913,2.342 10.952,5.603 15.116,9.782c1.875,1.937 1.858,5.017 -0.037,6.934c-3.274,3.372 -8.374,8.531 -11.772,11.967c-1.859,1.881 -4.86,1.988 -6.849,0.246c-2.372,-2.15 -4.976,-3.736 -7.776,-4.799c-3.987,-1.566 -7.902,-2.349 -11.746,-2.349c-3.701,0 -6.477,0.57 -8.328,1.709c-1.851,0.996 -2.776,2.491 -2.776,4.484c-0,2.136 1.21,3.844 3.63,5.125c2.421,1.282 5.553,2.421 9.396,3.417c3.844,0.997 7.902,2.207 12.173,3.631c4.271,1.423 8.328,3.345 12.172,5.765c3.844,2.421 6.976,5.695 9.396,9.824c2.42,3.986 3.63,9.253 3.63,15.802c0,10.108 -3.844,18.152 -11.531,24.131c-7.546,5.979 -17.796,8.969 -30.751,8.969Z" style="fill:#18002a;fill-rule:nonzero;"/></g><circle cx="511.188" cy="77.025" r="14.059" style="fill:#18002a;"/><path d="M511.188,62.966c12.491,0 22.633,10.142 22.633,22.634c0,10.262 -6.845,18.939 -16.215,21.708c-1.491,0.449 -3.107,0.166 -4.356,-0.763c-1.25,-0.929 -1.987,-2.395 -1.987,-3.952c-0.075,-4.999 -0.075,-11.51 -0.075,-11.51l-0,-28.117Z" style="fill:#18002a;"/><path d="M18.089,162.089c2.097,0 3.804,1.689 3.827,3.787c0,0 0,0.001 0,0.001c0.074,6.807 2.144,13.128 5.648,18.413l0.62,0.655c6.043,6.152 9.124,8.111 17.511,8.021c11.667,-0.126 21.19,-6.723 22.3,-18.078c0.079,-0.812 0.043,-4.13 -0.054,-4.941l0,-68.646c0,-2.761 2.239,-5 5,-5c6.568,0 17.873,0 23.054,0c1.707,0 3.296,0.871 4.215,2.31c5.823,9.242 26.907,43.927 27.102,62.006c0.343,31.752 -25.158,57.809 -56.91,58.152c-4.12,0.045 -17.703,0 -21.312,0c-8.705,0 -17.333,-1.929 -23.829,-5.018c-6.011,-3.039 -11.211,-7.168 -15.601,-12.387c-5.892,-6.048 -9.56,-14.282 -9.658,-23.384c-0.049,-4.502 0.781,-8.811 2.329,-12.764c0.761,-1.871 2.58,-3.094 4.6,-3.094c3.098,-0.033 7.811,-0.033 11.158,-0.033Z" style="fill:#18002a;"/><path d="M66.608,79.429l-30.399,22.878c-2.015,1.516 -4.727,1.725 -6.95,0.535c-2.224,-1.189 -3.554,-3.561 -3.411,-6.079l1.563,-27.389l-23.204,-11.688c-2.185,-1.1 -3.563,-3.338 -3.563,-5.784c0,-2.446 1.378,-4.684 3.563,-5.784l23.215,-11.694l-1.574,-27.579c-0.143,-2.517 1.187,-4.889 3.411,-6.079c2.223,-1.19 4.935,-0.981 6.95,0.536l34.881,26.251c3.411,-1.195 7.071,-1.862 10.883,-1.903c12.519,-0.135 23.542,6.517 29.566,16.53l30.135,-0c4.872,-0 9.545,1.935 12.99,5.381c3.445,3.445 5.381,8.118 5.381,12.99l-0,13.828c-0,1.339 -0.532,2.623 -1.479,3.571c-0.947,0.947 -2.232,1.479 -3.571,1.479l-88.387,-0Z" style="fill:#18002a;"/><path d="M754.83,224.943c-12.234,0 -23.615,-2.143 -34.145,-6.431c-10.375,-4.446 -19.512,-10.638 -27.409,-18.578c-7.743,-7.939 -13.782,-17.149 -18.118,-27.629c-4.336,-10.639 -6.504,-22.072 -6.504,-34.298c0,-12.227 2.168,-23.58 6.504,-34.06c4.336,-10.639 10.375,-19.849 18.118,-27.629c7.742,-7.781 16.801,-13.815 27.176,-18.102c10.53,-4.446 21.912,-6.669 34.145,-6.669c13.008,-0 24.544,2.143 34.61,6.43c8.543,3.584 16.167,8.278 22.871,14.081c1.02,0.9 1.628,2.179 1.683,3.539c0.054,1.36 -0.45,2.682 -1.396,3.661c-4.634,4.82 -12.735,13.206 -17.351,17.986c-1.875,1.939 -4.949,2.043 -6.95,0.234c-3.575,-3.201 -7.692,-5.801 -12.329,-7.822c-6.04,-2.7 -13.085,-4.049 -21.138,-4.049c-7.123,-0 -13.704,1.27 -19.743,3.811c-5.885,2.381 -10.995,5.875 -15.331,10.48c-4.181,4.604 -7.51,10.162 -9.988,16.672c-2.322,6.511 -3.484,13.656 -3.484,21.437c0,7.939 1.162,15.164 3.484,21.674c2.478,6.511 5.807,12.068 9.988,16.673c4.336,4.605 9.446,8.178 15.331,10.718c6.039,2.541 12.62,3.811 19.743,3.811c8.362,0 15.64,-1.349 21.834,-4.049c4.684,-2.041 8.882,-4.673 12.592,-7.895c1.986,-1.76 5.004,-1.651 6.857,0.25c4.646,4.723 12.832,13.117 17.558,17.963c0.966,0.991 1.479,2.338 1.415,3.721c-0.063,1.383 -0.697,2.677 -1.75,3.575c-6.929,5.79 -14.659,10.482 -23.2,14.064c-10.065,4.288 -21.756,6.431 -35.073,6.431Z" style="fill:#18002a;fill-rule:nonzero;"/><path d="M1032.43,222.557c-2.032,0.017 -3.872,-1.198 -4.655,-3.074c-5.956,-14.265 -30.792,-73.752 -39.323,-94.185c-0.644,-1.543 -0.474,-3.306 0.453,-4.698c0.927,-1.392 2.489,-2.228 4.161,-2.228c7.339,-0 18.197,-0 23.765,-0c2.14,-0 4.043,1.362 4.733,3.388c5.457,16.027 28.416,83.456 28.416,83.456l-15.207,-0c-0,-0 22.958,-67.429 28.415,-83.456c0.69,-2.026 2.593,-3.388 4.734,-3.388c5.45,-0 15.951,-0 23.125,-0c1.673,-0 3.235,0.836 4.162,2.229c0.927,1.393 1.096,3.157 0.45,4.7c-8.548,20.432 -33.422,79.887 -39.337,94.026c-0.772,1.846 -2.571,3.054 -4.571,3.07c-4.967,0.041 -14.317,0.119 -19.321,0.16Z" style="fill:#18002a;fill-rule:nonzero;"/><path d="M1160.37,224.943c-11.124,0 -21.05,-2.287 -29.781,-6.861c-8.589,-4.718 -15.348,-11.222 -20.276,-19.514c-4.928,-8.291 -7.392,-17.654 -7.392,-28.09c-0,-10.435 2.394,-19.727 7.181,-27.876c4.928,-8.291 11.546,-14.795 19.854,-19.513c8.307,-4.717 17.671,-7.076 28.091,-7.076c10.138,-0 19.079,2.216 26.824,6.647c7.744,4.432 13.799,10.579 18.164,18.441c4.506,7.863 6.759,16.869 6.759,27.018c-0,1.859 -0.141,3.86 -0.423,6.004c-0.059,0.847 -0.157,1.758 -0.292,2.733c-0.324,2.483 -2.437,4.343 -4.941,4.349c-17.539,0.047 -84.32,0.209 -84.32,0.209l-0,-22.515l74.768,-0.214l-13.94,9.434c-0.14,-6.004 -1.056,-10.936 -2.745,-14.795c-1.69,-4.003 -4.225,-7.005 -7.604,-9.006c-3.238,-2.145 -7.251,-3.217 -12.039,-3.217c-5.069,0 -9.504,1.215 -13.306,3.646c-3.661,2.287 -6.548,5.575 -8.66,9.863c-1.971,4.289 -2.957,9.507 -2.957,15.654c0,6.147 1.056,11.436 3.168,15.868c2.253,4.288 5.351,7.648 9.294,10.078c4.083,2.287 8.87,3.431 14.362,3.431c5.069,-0 9.645,-0.858 13.729,-2.574c2.696,-1.227 5.178,-2.828 7.445,-4.804c1.975,-1.734 4.96,-1.626 6.804,0.246c3.195,3.184 7.818,7.878 10.929,11.036c1.935,1.964 1.915,5.124 -0.045,7.063c-4.362,4.188 -9.353,7.474 -14.995,9.832c-7.181,3.002 -15.067,4.503 -23.656,4.503Z" style="fill:#18002a;fill-rule:nonzero;"/><path d="M827.784,218.539c-0.604,1.557 -0.39,3.312 0.568,4.679c0.959,1.366 2.537,2.164 4.206,2.127c8.306,-0.188 21.339,-0.481 27.382,-0.618c1.991,-0.045 3.766,-1.267 4.518,-3.112c3.967,-9.739 16.109,-39.545 16.109,-39.545c0,-0 8.979,-0.123 13.967,-0.191c1.974,-0.027 3.748,-1.213 4.526,-3.028c3.178,-7.406 11.172,-26.037 11.172,-26.037l9.182,0c-0,0 23.091,55.261 28.839,69.017c0.778,1.861 2.597,3.072 4.614,3.072c8.882,0 33.299,0 45.582,0c1.645,0 3.185,-0.809 4.118,-2.163c0.933,-1.354 1.14,-3.081 0.555,-4.618c-3.591,-9.418 -9.944,-26.085 -12.606,-33.068c-0.739,-1.938 -2.598,-3.219 -4.672,-3.219c-5.917,-0 -17.381,-0 -17.381,-0c0,-0 -23.782,-56.984 -29.622,-70.975c-0.777,-1.862 -2.597,-3.074 -4.614,-3.074c-8.508,-0 -30.967,-0 -39.509,-0c-2.033,-0 -3.863,1.231 -4.63,3.113c-3.476,8.532 -13.124,32.216 -16.6,40.747c-0.767,1.883 -2.597,3.114 -4.63,3.114c-3.605,-0 -9.298,-0 -12.927,-0c-2.064,-0 -3.916,1.268 -4.662,3.193c-4.154,10.718 -17.668,45.579 -23.485,60.586Z" style="fill:#18002a;"/></svg>