<?xml version="1.0" encoding="UTF-8" standalone="no"?><!DOCTYPE svg PUBLIC "-//W3C//DTD SVG 1.1//EN" "http://www.w3.org/Graphics/SVG/1.1/DTD/svg11.dtd"><svg width="100%" height="100%" viewBox="0 0 34 33" version="1.1" xmlns="http://www.w3.org/2000/svg" xmlns:xlink="http://www.w3.org/1999/xlink" xml:space="preserve" xmlns:serif="http://www.serif.com/" style="fill-rule:evenodd;clip-rule:evenodd;stroke-linejoin:round;stroke-miterlimit:2;"><rect x="31.904" y="10.967" width="1.994" height="1.994" style="fill:#18002a;"/><rect x="31.904" y="30.907" width="1.994" height="1.994" style="fill:#18002a;"/><rect x="29.91" y="20.937" width="3.988" height="1.994" style="fill:#18002a;"/><rect x="29.91" y="12.961" width="1.994" height="1.994" style="fill:#18002a;"/><rect x="29.91" y="28.913" width="1.994" height="1.994" style="fill:#18002a;"/><rect x="0" y="10.967" width="1.994" height="1.994" style="fill:#18002a;"/><rect x="0" y="30.907" width="1.994" height="1.994" style="fill:#18002a;"/><rect x="0" y="20.937" width="3.988" height="1.994" style="fill:#18002a;"/><rect x="1.994" y="12.961" width="1.994" height="1.994" style="fill:#18002a;"/><rect x="1.994" y="28.913" width="1.994" height="1.994" style="fill:#18002a;"/><path d="M9.97,25.922l-1.994,-0l-0,-6.979l1.994,-0l-0,-2.991l1.994,-0l-0,-1.994l1.994,-0l-0,-8.973l1.994,-0l-0,-4.985l1.994,-0l-0,4.985l1.994,-0l-0,8.973l1.994,-0l-0,1.994l1.994,-0l-0,2.991l1.994,-0l-0,6.979l-1.994,-0l-0,1.994l-1.994,-0l-0,1.994l-1.994,-0l-0,1.994l-5.982,-0l-0,-1.994l-1.994,-0l-0,-1.994l-1.994,-0l-0,-1.994Zm7.976,-18.943l-1.994,-0l-0,1.994l1.994,-0l-0,-1.994Zm-3.988,16.949l-0,-3.988l-1.994,-0l-0,3.988l1.994,-0Zm1.994,-5.982l1.994,-0l-0,-3.988l-1.994,-0l-0,3.988Zm-1.994,5.982l-0,1.994l1.994,-0l-0,-1.994l-1.994,-0Zm1.994,-0l2.991,-0l-0,-1.994l-2.991,-0l-0,1.994Zm2.991,-0l-0,1.994l1.994,-0l-0,-1.994l-1.994,-0Zm-0,1.994l-2.991,-0l-0,1.994l2.991,-0l-0,-1.994Zm-4.985,-5.982l1.994,-0l-0,-1.994l-1.994,-0l-0,1.994Z" style="fill:#18002a;"/></svg>